P1
7 9
0000000
0111110
0100000
0111100
0000010
0000010
0000010
0111110
0000000
