P1
4 4
0010
0110
1110
0010