P1
5 5
11111
10001
10101
11011
00100